<?xml version="1.0" encoding="UTF-8" standalone="no"?>
<!-- Created with Inkscape (http://www.inkscape.org/) -->

<svg
   xmlns:dc="http://purl.org/dc/elements/1.1/"
   xmlns:cc="http://creativecommons.org/ns#"
   xmlns:rdf="http://www.w3.org/1999/02/22-rdf-syntax-ns#"
   xmlns:svg="http://www.w3.org/2000/svg"
   xmlns="http://www.w3.org/2000/svg"
   xmlns:sodipodi="http://sodipodi.sourceforge.net/DTD/sodipodi-0.dtd"
   xmlns:inkscape="http://www.inkscape.org/namespaces/inkscape"
   id="svg2"
   version="1.1"
   inkscape:version="0.48.5 r10040"
   width="589"
   height="383"
   sodipodi:docname="New document 1">
  <metadata
     id="metadata8">
    <rdf:RDF>
      <cc:Work
         rdf:about="">
        <dc:format>image/svg+xml</dc:format>
        <dc:type
           rdf:resource="http://purl.org/dc/dcmitype/StillImage" />
        <dc:title></dc:title>
      </cc:Work>
    </rdf:RDF>
  </metadata>
  <defs
     id="defs6" />
  <sodipodi:namedview
     pagecolor="#ffffff"
     bordercolor="#666666"
     borderopacity="1"
     objecttolerance="10"
     gridtolerance="10"
     guidetolerance="10"
     inkscape:pageopacity="0"
     inkscape:pageshadow="2"
     inkscape:window-width="1280"
     inkscape:window-height="734"
     id="namedview4"
     showgrid="false"
     inkscape:zoom="1.1805696"
     inkscape:cx="294.5"
     inkscape:cy="191.5"
     inkscape:window-x="0"
     inkscape:window-y="27"
     inkscape:window-maximized="1"
     inkscape:current-layer="svg2" />
  <g
     id="g2987"
     transform="matrix(1.026719,0,0,1.0426743,-10.439777,-14.585136)">
    <path
       style="fill:#d1d1d1"
       d="m 16,340.80462 c -8.4812611,-4.52033 -7.1976687,-20.5957 1.851768,-23.19104 5.207181,-1.4934 9.336121,0.27669 11.648232,4.99363 1.975027,4.02926 2.031683,4.06031 4.537423,2.4865 1.395583,-0.87654 3.420583,-2.39439 4.5,-3.373 C 39.61684,320.7421 42.75,318.10698 45.5,315.86489 62.233457,302.22199 101.48817,259.96735 112.72724,243.5 c 1.50151,-2.2 3.63964,-4.97324 4.75139,-6.16276 1.11175,-1.18952 2.92137,-3.38976 4.02137,-4.88943 3.27326,-4.46256 20.98729,-23.79719 24.72771,-26.98997 1.90585,-1.62681 4.91578,-4.08284 6.68873,-5.45784 1.77295,-1.375 4.171,-3.36645 5.329,-4.42545 3.60818,-3.29969 17.21835,-12.14831 23.88518,-15.52889 6.75447,-3.42501 14.77897,-6.49897 21.36938,-8.18599 6.01977,-1.54095 24.56298,-0.70119 27.5582,1.24802 1.34299,0.87398 4.04883,2.11563 6.01298,2.75922 4.12707,1.35231 13.43071,9.31319 16.98848,14.5366 l 2.44034,3.58282 13.10078,0.007 c 7.20542,0.004 14.51792,-0.48719 16.25,-1.091 L 289,191.80435 l 0.22059,-28.90218 c 0.12132,-15.89619 0.23382,-32.16467 0.25,-36.15217 0.0358,-8.82423 -0.45293,-9.04132 -11.92416,-5.29674 -12.80372,4.17956 -14.99194,3.10229 -10.54643,-5.19208 1.1,-2.05236 2,-4.31949 2,-5.03807 0,-0.71858 1.35,-4.19398 3,-7.72311 1.65,-3.529129 3,-7.010236 3,-7.735793 0,-0.725557 0.61097,-2.206822 1.35771,-3.291701 C 277.10445,91.387628 278.29565,88.7 279.00481,86.5 279.71397,84.3 281.128,80.931664 282.1471,79.014809 283.16619,77.097954 284,75.122243 284,74.62434 c 0,-0.497903 0.88648,-2.754567 1.96996,-5.014809 1.62443,-3.388732 6.79213,-16.572355 9.35242,-23.859531 0.71331,-2.030234 3.95705,-2.323163 5.47478,-0.494406 0.57313,0.690577 1.37441,2.603077 1.78063,4.25 0.40622,1.646923 1.29225,3.894406 1.96895,4.994406 0.6767,1.1 1.79874,3.8 2.49343,6 0.6947,2.2 1.83149,4.9 2.52622,6 0.69472,1.1 1.96942,4.420375 2.83267,7.378612 0.86324,2.958236 1.96795,5.883236 2.45491,6.5 0.48696,0.616763 1.46226,2.921388 2.16733,5.121388 0.70507,2.2 1.85036,4.9 2.54509,6 0.69472,1.1 1.93082,4.25 2.74689,7 0.81606,2.75 2.20164,6.35 3.07907,8 0.87743,1.65 1.5981,3.68166 1.60149,4.51481 0.003,0.83314 0.90616,3.19401 2.00616,5.24637 1.1,2.05237 2,4.37788 2,5.16781 0,2.4879 -3.62108,2.72175 -9.60086,0.62003 -3.17686,-1.11658 -7.94129,-2.31736 -10.58762,-2.66841 L 306,118.74234 l 0,36.62883 0,36.62883 16.29451,0 16.29452,0 3.74624,-4.9124 c 7.14345,-9.36711 17.88821,-15.4897 30.34535,-17.29141 6.92896,-1.00216 9.60651,-0.92839 17.5,0.48211 8.15579,1.45738 21.47639,6.04537 23.53826,8.10725 0.39107,0.39107 2.52681,1.59675 4.74608,2.6793 8.96258,4.3719 25.06228,16.56471 34.4486,26.08903 5.81766,5.9032 19.12381,21.1702 22.78809,26.14626 1.53909,2.09007 5.16698,6.81507 8.06196,10.5 2.89499,3.68492 6.14737,7.82486 7.22751,9.19986 4.66134,5.93383 26.26175,30.5981 31.80713,36.31875 3.05005,3.14646 22.16075,20.82935 29.66547,27.4491 2.44508,2.15675 7.67572,5.44447 8.01215,5.03604 0.13768,-0.16714 0.6798,-1.65389 1.20472,-3.30389 0.59109,-1.85799 2.31083,-3.74003 4.51765,-4.94402 3.16344,-1.72589 4.03413,-1.80294 7.76,-0.68664 3.29436,0.98702 4.50263,1.98944 5.61926,4.6619 1.80612,4.32265 1.81399,9.59602 0.0207,13.88788 -2.66731,6.38378 -3.49689,6.46527 -71.59824,7.03304 -33.275,0.27742 -99.875,0.89892 -148,1.38111 -48.125,0.4822 -144.65,1.19782 -214.5,1.59026 C 40.59026,342.01296 18.065152,341.90531 16,340.80462 z m 229.75,-9.44075 34.25,-0.59593 0,-14.88397 c 0,-16.07954 -0.17604,-15.49131 6.10754,-20.4075 l 2.58635,-2.02353 0.72834,-34.22647 0.72834,-34.22647 -17.11813,0 -17.11812,0 -4.70716,-4.32274 c -6.47257,-5.94397 -13.53591,-10.47145 -18.52112,-11.87173 -8.65738,-2.43174 -33.88269,-0.377 -38.07381,3.10133 -0.6387,0.53007 -3.40023,1.7148 -6.13675,2.63274 -2.73651,0.91793 -5.65048,2.21003 -6.47548,2.87132 -0.825,0.6613 -2.625,1.74655 -4,2.41167 -6.0856,2.94375 -24.2579,15.95488 -33.5,23.98555 -6.38763,5.55035 -20.72912,18.84792 -32.3044,29.95294 -5.88258,5.64359 -11.59399,11.04359 -12.692027,12 -1.098035,0.95641 -8.973035,8.18798 -17.5,16.07017 -8.526965,7.88219 -17.648785,16.20719 -20.27071,18.5 -2.621925,2.29281 -5.920581,5.28597 -7.330347,6.65147 -1.409765,1.36549 -3.716985,3.23958 -5.127155,4.16464 -2.410453,1.58124 2.368678,1.6559 79.830349,1.24718 45.31686,-0.23911 97.80679,-0.70291 116.64429,-1.03067 z m 212.9172,-2.09438 c 45.19196,-0.42322 82.50235,-1.10488 82.91198,-1.5148 0.40963,-0.40993 -0.9675,-2.20993 -3.06029,-4 -2.09279,-1.79008 -7.20085,-6.40469 -11.35125,-10.25469 -4.1504,-3.85 -12.0735,-11.17701 -17.60691,-16.28225 -5.5334,-5.10523 -16.81073,-15.77827 -25.06073,-23.71787 -16.56112,-15.938 -31.17087,-29.7627 -33.52829,-31.72666 -0.84057,-0.70027 -3.95254,-3.29822 -6.91549,-5.77322 -2.96296,-2.475 -6.85116,-5.4 -8.64045,-6.5 -1.78929,-1.1 -5.65232,-3.64726 -8.58451,-5.66058 -7.57424,-5.20067 -22.4497,-12.70708 -28.33126,-14.29643 -2.75,-0.74312 -6.35,-1.91255 -8,-2.59873 -1.76236,-0.73291 -7.53803,-1.2577 -14,-1.27208 -9.8625,-0.022 -11.60063,0.25362 -16.80832,2.66485 -6.94772,3.21689 -11.22945,6.16116 -14.57623,10.02312 -4.97306,5.73859 -4.70107,5.63985 -15.536,5.63985 -5.65273,0 -13.72059,0.29103 -17.92857,0.64674 L 304,225.29347 l 0,33.37009 0,33.37009 4.5,4.31176 4.5,4.31176 0,15.19855 0,15.19856 31.75,-0.50765 c 17.4625,-0.27921 68.72524,-0.85392 113.9172,-1.27714 z"
       id="path3001"
       inkscape:connector-curvature="0" />
    <path
       style="fill:#a9a9a9"
       d="M 15.749978,340.00558 C 11.309131,337.20157 9.6540545,328.50345 12.51035,322.97998 14.332359,319.45661 16.815518,318 21,318 c 4.549845,0 6.554746,1.42993 8.37165,5.97083 0.886686,2.21604 1.859792,4.02917 2.162459,4.02917 0.589379,0 1.293627,-0.52016 5.965891,-4.40646 1.65,-1.37244 5.25,-4.3399 8,-6.59435 17.213008,-14.11126 58.88538,-59.04672 68.93924,-74.33741 1.06658,-1.62214 2.86658,-3.94518 4,-5.16231 1.13342,-1.21713 2.96076,-3.43473 4.06076,-4.92799 5.65587,-7.67794 24.50925,-27.24333 30.42256,-31.57148 1.87858,-1.375 4.38277,-3.4 5.56487,-4.5 3.57424,-3.32602 18.5995,-13.04491 25.4017,-16.43076 11.90103,-5.92384 20.53957,-8.16729 31.67118,-8.22509 9.10912,-0.0473 10.75832,0.24479 17.44271,3.08925 8.55478,3.64039 14.66258,8.33117 19.78923,15.19811 l 3.63466,4.86849 12.80229,0 c 7.19601,0 14.49591,-0.52857 16.66976,-1.20703 l 3.86746,-1.20703 0.4276,-35.54297 c 0.23517,-19.54863 0.22292,-36.37762 -0.0272,-37.39775 -0.38238,-1.55929 -1.0846,-1.75407 -4.40781,-1.22267 -2.17414,0.34766 -7.11511,1.73689 -10.97994,3.08718 -6.95633,2.4304 -8.77903,2.47204 -8.77903,0.20058 0,-1.4191 3.38393,-10.30067 6.62851,-17.39736 C 273.93283,101.46007 275,98.789648 275,98.378674 c 0,-0.410974 0.8467,-2.576801 1.88155,-4.81295 1.03485,-2.236148 3.57432,-8.33757 5.64327,-13.558716 2.06896,-5.221146 4.12879,-10.171146 4.57741,-11 1.04162,-1.924482 7.53234,-18.766956 8.40713,-21.815304 1.17495,-4.094281 4.62736,-2.417887 6.8132,3.308296 4.66639,12.224435 5.4845,14.273284 7.51997,18.832905 1.18661,2.658098 2.17154,5.358098 2.18874,6 0.0172,0.641902 1.13809,3.417095 2.49086,6.167095 1.35277,2.75 2.46781,5.45 2.47787,6 0.0101,0.55 1.1251,3.25 2.47787,6 1.35277,2.75 2.47366,5.625711 2.49086,6.390469 0.0172,0.764761 0.87589,3.239761 1.9082,5.500001 1.03231,2.26024 2.8891,6.73024 4.1262,9.93333 3.0572,7.91571 2.10812,8.7331 -6.76316,5.82476 -3.73261,-1.2237 -8.80108,-2.32022 -11.26327,-2.43673 L 305.5,118.5 l -0.26217,37.25 -0.26217,37.25 16.89056,0 16.89056,0 4.06696,-5.27154 c 10.52783,-13.64602 26.74915,-19.63672 45.7374,-16.89131 11.73241,1.69633 21.3546,5.66976 37.51273,15.49066 4.6383,2.81916 16.92613,12.64215 16.92613,13.53089 0,0.37757 1.4625,1.48935 3.25,2.47063 1.7875,0.98127 5.05,3.83824 7.25,6.34883 2.2,2.51058 6.475,7.38234 9.5,10.82612 8.70182,9.90651 9.85229,11.32575 17.79516,21.95233 2.03766,2.72614 4.37984,5.73506 5.20484,6.68648 0.825,0.95143 2.4,2.9439 3.5,4.42772 1.1,1.48382 3.22677,4.0999 4.72614,5.81352 1.49938,1.71362 5.25975,6.04067 8.35636,9.61567 11.02961,12.73353 15.03835,17.0622 24.4175,26.36629 10.45644,10.37275 21.33278,20.17711 30.80127,27.76547 1.99335,1.59753 3.8493,0.36537 4.52293,-3.00275 1.41855,-7.09274 13.51477,-8.16737 16.56553,-1.47169 1.44322,3.16754 1.42258,10.56313 -0.0384,13.76971 -2.455,5.38814 -3.96361,5.51775 -70.35129,6.04438 -33.55,0.26613 -100.15,0.87955 -148,1.36314 -174.88535,1.76746 -342.901572,2.33817 -344.750022,1.17103 z M 256,332.15094 280.5,331.5 l 0.5,-15.66234 0.5,-15.66233 2.93989,-2.33767 c 1.61694,-1.28571 3.47978,-2.78766 4.13964,-3.33766 0.86574,-0.7216 1.38942,-10.67454 1.88102,-35.75 l 0.68128,-34.75 -17.53312,0 -17.53311,0 -6.16396,-5.5 c -3.39018,-3.025 -6.52505,-5.5 -6.96637,-5.5 -0.44133,0 -1.41657,-0.61415 -2.1672,-1.36479 -0.75063,-0.75063 -4.53046,-2.36388 -8.39961,-3.58501 -5.51054,-1.73915 -8.64296,-2.12207 -14.45664,-1.76722 -8.14119,0.49692 -19.7262,2.93959 -24.42182,5.14928 -15.08494,7.09877 -24.13124,11.96939 -28,15.0755 -1.1,0.88316 -5.6,4.29186 -10,7.57489 -11.82357,8.82209 -13.68324,10.47425 -41.21031,36.612 -23.961657,22.75229 -30.480133,28.82165 -31.683168,29.50022 -0.677562,0.38218 -4.428681,3.75718 -8.33582,7.5 -3.907139,3.74282 -9.434096,8.83013 -12.282126,11.30513 -2.84803,2.475 -6.373063,5.65791 -7.833406,7.07313 -1.460344,1.41522 -3.89267,3.37948 -5.40517,4.36501 -1.5125,0.98553 -2.75,2.13484 -2.75,2.55402 0,0.85628 172.04949,0.16708 210,-0.84122 z m 203.66707,-1.87526 c 45.74189,-0.42662 83.4803,-1.08909 83.86313,-1.47214 0.68543,-0.68583 -1.02762,-2.41804 -16.12314,-16.30354 -4.18551,-3.85 -11.70273,-10.9375 -16.70494,-15.75 -5.00221,-4.8125 -9.42346,-8.75 -9.825,-8.75 -0.40154,0 -7.70597,-6.8625 -16.23206,-15.25 C 470.00936,258.3522 454.32464,243.38736 451,240.64915 c -0.825,-0.67948 -3.93697,-3.241 -6.91549,-5.69228 -2.97852,-2.45128 -6.87945,-5.35687 -8.66874,-6.45687 -1.78929,-1.1 -5.65232,-3.64251 -8.58451,-5.65002 -8.16898,-5.59284 -22.35162,-12.37949 -32.33126,-15.47109 -12.36545,-3.83069 -25.20557,-3.91212 -34,-0.21561 -7.56677,3.1805 -12.1674,6.31977 -17.05995,11.64097 L 339.58229,223 l -9.13752,0 c -5.02564,0 -13.25665,0.29238 -18.29115,0.64974 L 303,224.29949 l 0,33.97954 0,33.97955 4.5,4.1906 4.5,4.19059 0,15.70689 0,15.70689 32.25,-0.50109 c 17.7375,-0.27561 69.67518,-0.85016 115.41707,-1.27678 z"
       id="path2999"
       inkscape:connector-curvature="0" />
    <path
       style="fill:#8f8f8f"
       d="m 14.07258,337.36514 c -2.877331,-3.65793 -2.877331,-12.07235 0,-15.73028 C 15.804799,319.4327 16.945034,319 21.015876,319 c 3.899642,0 5.181076,0.4431 6.42742,2.22251 0.856187,1.22237 1.556704,3.0365 1.556704,4.03138 0,2.66771 2.620901,3.20533 5.337945,1.09496 1.309194,-1.01687 5.031236,-3.84581 8.271204,-6.28654 15.986295,-12.04277 59.895991,-58.74187 71.048861,-75.56231 6.86025,-10.34643 27.81937,-33.23957 39.2646,-42.88778 14.93658,-12.59138 30.1707,-21.66915 44.07739,-26.26499 10.20525,-3.37261 27.16788,-3.67528 34,-0.60668 2.475,1.11163 5.625,2.36463 7,2.78444 1.375,0.41981 6.3861,4.74843 11.13577,9.61915 l 8.63578,8.85586 11.36422,-0.0152 c 10.7447,-0.0144 18.64593,-1.35099 20.78257,-3.51575 0.56419,-0.57161 1.04632,-15.61494 1.17551,-36.67811 0.23806,-38.81235 0.14645,-39.51195 -5.01965,-38.33116 -1.41581,0.32361 -6.27335,1.79089 -10.79453,3.26063 -4.52118,1.46973 -8.53686,2.35572 -8.92373,1.96885 -0.38687,-0.38687 0.24358,-2.61273 1.40099,-4.94634 1.15741,-2.33362 2.43177,-5.59294 2.83192,-7.24294 0.40014,-1.65 1.27707,-3.9 1.94873,-5 0.67166,-1.1 2.03249,-4.25 3.02406,-7 0.99158,-2.75 2.39585,-5.887628 3.12061,-6.972506 C 279.40701,90.442615 280,88.993451 280,88.307129 c 0,-0.686322 1.125,-3.707359 2.5,-6.713417 1.375,-3.006057 2.5,-5.782604 2.5,-6.170104 0,-0.3875 0.8753,-2.553835 1.94512,-4.814077 C 289.9476,64.266078 296,48.715059 296,47.343961 c 0,-3.418274 4.96521,-1.909861 5.03127,1.528484 0.0172,0.895155 1.13809,3.877555 2.49086,6.627555 1.35277,2.75 2.4637,5.525527 2.46873,6.167838 0.005,0.642311 1.13414,3.407664 2.50914,6.145227 1.375,2.737564 2.50411,5.587037 2.50914,6.332162 0.005,0.745125 1.11596,3.604773 2.46873,6.354773 1.35277,2.75 2.47366,5.525527 2.49086,6.167838 0.0172,0.642311 1.15627,3.407664 2.53127,6.145227 1.375,2.737564 2.5,5.604388 2.5,6.37072 0,0.766332 0.82937,3.020095 1.84304,5.008355 1.01368,1.98826 2.4254,5.695 3.13718,8.2372 0.71177,2.5422 1.6824,4.86215 2.15695,5.15544 0.47456,0.29329 0.86283,1.4067 0.86283,2.47424 0,2.35212 -2.63037,2.54009 -7.4376,0.5315 -6.17394,-2.57964 -14.49007,-3.89543 -16.11208,-2.54929 -1.21819,1.01101 -1.45032,6.99414 -1.45032,37.38121 0,26.80477 0.31089,36.48845 1.2,37.37756 0.83261,0.83261 6.06341,1.2 17.08533,1.2 l 15.88534,0 3.16466,-3.74771 c 14.1275,-16.7303 28.55421,-21.96594 50.23101,-18.2295 6.21763,1.07173 18.86567,5.44348 21.43366,7.40847 0.825,0.63127 3.075,1.93339 5,2.89358 11.86266,5.91714 32.99898,23.21224 41.5,33.95798 1.1,1.39046 5.09589,6.05815 8.87975,10.37264 3.78387,4.3145 7.62207,9.0378 8.52933,10.49624 7.07041,11.36573 45.09111,54.17155 60.27978,67.86632 16.89137,15.23002 22.57166,19.42562 24.32718,17.96867 0.81618,-0.67737 1.48396,-2.27596 1.48396,-3.55243 0,-5.06054 9.9363,-7.49796 14,-3.43426 1.56037,1.56037 2,3.33333 2,8.06574 0,6.55019 -0.93578,9.20668 -3.72222,10.56661 C 574.3,335.10956 546.725,335.81399 514,336.19776 c -32.725,0.38377 -75.475,0.93949 -95,1.23492 -50.54659,0.76484 -302.83608,2.58344 -357.17742,2.57468 L 16.14516,340 14.07258,337.36514 z m 229.72323,-3.99775 c 28.96205,-0.49386 35.55675,-0.86281 36.75,-2.05605 1.13902,-1.13903 1.45419,-4.6082 1.45419,-16.0067 l 0,-14.5525 4.34203,-3.82201 4.34203,-3.82201 0.70572,-33.64406 c 0.52696,-25.1224 0.40932,-34.00121 -0.46448,-35.05407 C 290.00138,223.29673 286.1374,223 272.56465,223 l -17.19047,0 -2.93709,-3.10597 c -8.63913,-9.13588 -23.46621,-15.41229 -34.53728,-14.61989 -7.16909,0.51313 -22.07324,3.84152 -24.08703,5.37912 -0.72203,0.55129 -3.56278,1.81642 -6.31278,2.8114 -2.75,0.99498 -5.675,2.33546 -6.5,2.97884 -0.825,0.64338 -2.625,1.71397 -4,2.37909 -2.27989,1.10284 -5.36222,3.06479 -13.63264,8.67741 -12.69911,8.61808 -22.94978,17.54524 -49.88534,43.44443 -20.893157,20.08927 -63.391636,58.54561 -66.988907,60.61743 -1.014034,0.58403 -1.547453,1.5412 -1.185376,2.12705 0.684495,1.10754 126.647373,0.9035 198.488073,-0.32152 z M 375.81574,332.1 c 0.9435,-0.50417 38.05674,-1.05394 84.38445,-1.25 56.69869,-0.23996 83.03484,-0.68471 83.76458,-1.41458 0.75257,-0.7527 -5.40576,-7.05116 -21.02165,-21.5 -12.14731,-11.23948 -31.16637,-29.16786 -42.26457,-39.84085 -22.66847,-21.79994 -38.98828,-36.42776 -44.08985,-39.51871 -1.8844,-1.14172 -5.82525,-3.72203 -8.75744,-5.73401 -8.3786,-5.74914 -24.48603,-13.48234 -34.33126,-16.48249 -18.97009,-5.78078 -34.82749,-2.57424 -47.66083,9.63755 l -6.06336,5.76971 -17.57135,0.64649 c -10.25923,0.37746 -18.11922,1.10119 -18.88791,1.73914 -1.0407,0.8637 -1.31655,8.09834 -1.31655,34.52863 l 0,33.43599 4.5,4.09536 4.5,4.09536 0,15.14621 c 0,10.44704 0.3723,15.5185 1.2,16.3462 1.45335,1.45335 60.93246,1.73384 63.61574,0.3 z"
       id="path2997"
       inkscape:connector-curvature="0" />
    <path
       style="fill:#6e6e6e"
       d="M 16.22896,339.41015 C 12.392837,337.62692 10.800421,328.22041 13.463015,323.07152 15.126599,319.8545 16.790402,319 21.390658,319 c 4.205754,0 6.280551,1.69111 7.359419,5.99847 0.481946,1.92416 1.523831,3.62318 2.3153,3.7756 0.791469,0.15243 5.370539,-3.10938 10.17571,-7.24847 4.805171,-4.13908 8.953707,-7.5256 9.218968,-7.5256 0.675501,0 27.446297,-27.10108 36.713048,-37.166 10.047352,-10.91275 13.643427,-15.22048 30.186797,-36.16077 7.62294,-9.64898 14.48544,-17.78364 15.25,-18.07703 0.76455,-0.29339 1.3901,-1.12212 1.3901,-1.84163 0,-2.64895 28.89559,-28.00587 37.68458,-33.06958 8.23792,-4.74621 19.99795,-10.25546 26.31542,-12.32805 11.08139,-3.63551 25.12317,-3.59315 33.90311,0.10228 10.71626,4.51041 17.1875,9.64466 22.63486,17.95839 1.67803,2.561 1.80086,2.58227 14.82704,2.56733 11.50437,-0.0132 19.12991,-1.11924 21.02504,-3.0496 0.83935,-0.85496 1.04196,-73.46201 0.20871,-74.79306 -1.08864,-1.73901 -6.31367,-0.95376 -15.87009,2.38505 -3.89253,1.35997 -7.22388,2.47267 -7.403,2.47267 -1.24628,0 1.2445,-7.33779 6.3436,-18.68807 1.2819,-2.85345 2.33073,-5.52387 2.33073,-5.93428 0,-0.410411 0.83406,-2.575777 1.85346,-4.811926 1.0194,-2.236148 3.10698,-7.215724 4.63906,-11.065724 1.53208,-3.85 3.60035,-8.8 4.59616,-11 1.72423,-3.809248 8.06525,-20.043554 9.27661,-23.75 0.93018,-2.846128 3.46671,-2.000647 4.50014,1.5 1.04089,3.525889 4.1364,11.228371 7.81188,19.438075 1.27748,2.853441 2.3268,5.778441 2.33183,6.5 0.005,0.721559 1.11596,3.561925 2.46873,6.311925 1.35277,2.75 2.47777,5.45 2.5,6 0.0222,0.55 1.14723,3.25 2.5,6 1.35277,2.75 2.47366,5.645424 2.49086,6.434276 0.0172,0.788854 0.8579,3.263854 1.86822,5.500004 3.79527,8.40007 6.37472,15.68739 5.76765,16.29445 -0.34555,0.34555 -3.7276,-0.38781 -7.51567,-1.62969 -3.78808,-1.24188 -9.07025,-2.3347 -11.73817,-2.4285 L 304.5,117.5 l 0,38 0,38 17.20822,0.27343 17.20823,0.27344 4.13245,-5.27344 c 10.97157,-14.00084 26.31224,-19.71231 45.4961,-16.93861 16.19607,2.34171 36.18754,12.55101 52.40758,26.76365 6.67086,5.84528 27.02331,26.76991 27.03619,27.79629 0.006,0.49212 0.94698,1.84212 2.09067,3 1.14369,1.15788 6.38772,7.73024 11.6534,14.60524 10.37155,13.54133 22.96821,28.40727 30.51716,36.01478 2.6125,2.63276 4.75,5.0818 4.75,5.44229 0,1.54486 28.99488,28.53924 39.25076,36.54266 3.43265,2.67875 6.143,2.26318 6.5869,-1.00995 0.18572,-1.36938 1.31072,-3.54504 2.5,-4.83479 1.80799,-1.96073 2.87305,-2.26603 6.4993,-1.86304 2.38534,0.26509 4.83114,0.97615 5.43512,1.58013 1.50741,1.50741 2.12889,12.04222 0.89815,15.22472 -1.79088,4.63095 -4.97206,4.8751 -70.17023,5.38553 -33.275,0.26051 -99.65,0.86916 -147.5,1.35256 -126.05464,1.27346 -342.786944,2.26515 -344.27104,1.57526 z m 210.65667,-5.90209 c 36.87722,-0.34374 52.78955,-0.82352 53.75,-1.62063 C 281.67546,331.02446 282,327.24093 282,315.98162 l 0,-14.77349 4.42053,-3.85406 4.42054,-3.85407 0.32946,-35 0.32947,-35 -17.99007,-0.27405 -17.99007,-0.27405 -4.50993,-4.28928 c -10.74045,-10.21498 -20.4712,-14.14974 -33.08811,-13.37964 -8.11731,0.49546 -19.70318,2.93398 -24.42182,5.14016 -1.65,0.77145 -6.10855,2.85501 -9.90788,4.63013 -3.79934,1.77513 -8.8146,4.51433 -11.14503,6.08712 -2.33043,1.57278 -4.50761,2.85961 -4.83819,2.85961 -0.80864,0 -18.87948,13.8911 -25.01662,19.23034 -6.41882,5.58429 -11.81656,10.62891 -37.43062,34.98189 -11.736087,11.15827 -22.065023,20.6988 -22.95319,21.20117 -0.888167,0.50237 -3.914908,3.20237 -6.726092,6 -2.811184,2.79763 -8.007249,7.61715 -11.546811,10.71004 -15.095861,13.19086 -18.453012,16.33211 -18.754974,17.54885 -0.326371,1.31509 25.505872,1.29174 181.705037,-0.16423 z m 233.78133,-2.22898 c 46.29183,-0.42849 84.5147,-1.12695 84.93971,-1.55212 C 546.39621,328.93712 537.25541,319 535.73933,319 c -0.45971,0 -3.91175,-3.15 -7.67118,-7 -3.75943,-3.85 -7.14718,-7 -7.52834,-7 -0.38116,0 -4.59605,-3.79472 -9.36642,-8.43271 C 477.23365,263.56937 457.18561,244.71832 449,238.10605 439.16266,230.15951 429.41396,223 428.43096,223 c -0.31042,0 -1.99688,-1.07874 -3.74768,-2.3972 -5.4104,-4.07435 -20.7402,-11.29853 -30.18328,-14.22391 -12.65477,-3.92032 -25.11224,-3.91394 -34.65787,0.0177 -3.66183,1.50825 -7.44408,3.61102 -8.40499,4.67282 -0.96091,1.0618 -2.22165,1.93054 -2.80164,1.93054 -0.57999,0 -2.87275,1.9596 -5.09501,4.35466 l -4.04049,4.35466 -17.80924,0.62294 c -9.79509,0.34261 -18.23259,0.88457 -18.75,1.20436 C 302.3826,223.88157 302,238.09788 302,258.49207 l 0,34.37403 4.5,3.68741 4.5,3.68741 0,15.71288 c 0,8.64207 0.31183,16.0247 0.69295,16.40582 0.38113,0.38113 15.11863,0.46921 32.75,0.19575 17.63138,-0.27347 69.93218,-0.8478 116.22401,-1.27629 z"
       id="path2995"
       inkscape:connector-curvature="0" />
    <path
       style="fill:#545454"
       d="M 16.749978,339.00503 C 14.408071,337.52706 12,332.70834 12,329.5 c 0,-3.37262 2.500865,-8.1625 4.944609,-9.47036 4.782017,-2.55925 10.443129,-0.0937 11.570505,5.03917 1.003432,4.5686 3.011564,4.6352 8.275269,0.27444 2.590289,-2.14594 5.952181,-4.68975 7.470869,-5.65291 10.286185,-6.52352 61.813958,-61.63858 70.296418,-75.19034 2.60936,-4.16877 14.89687,-18.69121 24.02211,-28.3914 12.44258,-13.22654 33.175,-29.37807 42.42315,-33.04964 1.92339,-0.76359 4.17207,-1.94409 4.99707,-2.62333 0.825,-0.67924 5.6881,-2.63013 10.8069,-4.33531 7.7848,-2.59328 10.855,-3.10032 18.77281,-3.10032 8.39051,0 10.33035,0.36285 17.07463,3.19386 7.95377,3.3387 15.99558,9.73468 20.43474,16.25257 l 2.41092,3.5399 13.88398,0.007 c 7.63619,0.004 15.56598,-0.49711 17.62176,-1.11304 l 3.73778,-1.11986 0.45612,-36.63014 c 0.25086,-20.14657 0.24177,-37.4724 -0.0202,-38.50184 -0.40633,-1.5966 -1.15267,-1.79025 -5.07788,-1.31753 -2.53085,0.3048 -7.62904,1.56956 -11.32932,2.81059 -3.70029,1.24103 -7.0143,1.9699 -7.36448,1.61973 -0.35018,-0.35018 0.31483,-2.60226 1.47779,-5.00461 1.16296,-2.40236 2.11447,-5.02571 2.11447,-5.82969 0,-0.80397 0.60974,-2.3494 1.35497,-3.43427 0.74524,-1.08488 2.31018,-4.55001 3.47766,-7.700297 1.16747,-3.150282 2.55103,-6.525282 3.07456,-7.5 C 279.43073,91.297496 281.52032,86.225 283.55073,81 c 2.03041,-5.225 4.02848,-9.95 4.44014,-10.5 0.41167,-0.55 1.31301,-2.8 2.00298,-5 0.68997,-2.2 2.2557,-6.25 3.4794,-9 1.2237,-2.75 2.52639,-6.2375 2.89488,-7.75 0.36849,-1.5125 1.12105,-2.75 1.67236,-2.75 0.55131,0 1.49395,1.2375 2.09474,2.75 0.6008,1.5125 1.89452,4.55 2.87493,6.75 0.98042,2.2 2.0987,5.125 2.48508,6.5 0.38637,1.375 1.783,4.834634 3.10363,7.688075 1.32062,2.853441 2.4152,5.778441 2.4324,6.5 0.0172,0.721559 1.13809,3.561925 2.49086,6.311925 1.35277,2.75 2.46781,5.45 2.47787,6 0.0101,0.55 1.1251,3.25 2.47787,6 1.35277,2.75 2.47366,5.68166 2.49086,6.51481 0.0172,0.83314 0.93127,3.19401 2.03127,5.24637 1.1,2.05237 2,4.31305 2,5.02375 0,0.7107 0.89826,3.05407 1.99614,5.20749 1.09787,2.15342 1.63967,4.27177 1.20399,4.70745 -0.43568,0.43568 -3.43562,-0.13695 -6.66653,-1.27253 -3.23091,-1.13557 -8.38521,-2.14628 -11.45399,-2.24601 L 304.5,117.5 l -0.26188,38.25 -0.26189,38.25 17.8064,0 17.8064,0 3.74624,-4.9124 c 4.83886,-6.34513 11.13031,-11.18252 19.584,-15.05779 1.3306,-0.60996 5.70895,-1.62046 9.72968,-2.24554 18.77341,-2.91864 41.41767,5.72009 65.14078,24.85106 13.23267,10.67118 25.52572,23.75943 38.94777,41.46715 10.60467,13.99077 20.65293,26.03412 34.88678,41.81357 19.56159,21.68571 45.1983,44.64993 49.0237,43.91323 0.97214,-0.18722 2.09265,-1.74855 2.56609,-3.57561 1.19716,-4.61998 4.92174,-6.82198 9.57931,-5.66337 2.33716,0.58139 4.11173,1.81195 4.91705,3.4097 1.60814,3.19054 1.62085,9.79705 0.0248,12.90692 -2.47817,4.82875 -4.55756,4.99273 -70.04179,5.52371 -33.65641,0.2729 -100.34347,0.89771 -148.19347,1.38848 -173.17944,1.77618 -340.895224,2.35648 -342.750022,1.18592 z M 257,333.14913 281.5,332.5 l 0.5,-15.64549 0.5,-15.64549 4.17657,-3.85451 4.17658,-3.85451 0.66009,-35.25 0.66008,-35.25 -17.74003,0 -17.74004,0 -5.20941,-4.75 c -11.00873,-10.03789 -20.36596,-13.65482 -33.5489,-12.96795 -8.92262,0.46489 -20.43511,2.79655 -25.43494,5.15143 -1.65,0.77713 -5.475,2.55625 -8.5,3.9536 -17.10143,7.89973 -35.10294,21.79124 -64.06398,49.43727 C 109.17582,274.09596 93.706731,288.575 85.560254,296 77.413777,303.425 66.417571,313.47476 61.124239,318.3328 55.830908,323.19084 49.8125,328.31314 47.75,329.71569 c -2.0625,1.40254 -3.75,3.1171 -3.75,3.81013 0,1.00798 18.854568,1.16126 94.25,0.76624 51.8375,-0.27159 105.275,-0.78591 118.75,-1.14293 z m 204.66696,-1.86932 c 46.29183,-0.4289 84.45877,-1.07174 84.81541,-1.42855 0.35665,-0.35681 -1.73137,-2.83181 -4.64003,-5.5 C 538.93368,321.68307 529.41906,312.75 520.69875,304.5 c -8.7203,-8.25 -16.83242,-15.66053 -18.02693,-16.46784 -1.1945,-0.8073 -10.32416,-9.39361 -20.28812,-19.08068 -32.45852,-31.5565 -39.43062,-37.30756 -63.89378,-52.70387 -1.09446,-0.68881 -3.11492,-1.74408 -4.48992,-2.34505 -5.12164,-2.23849 -6.53726,-2.92171 -8,-3.86107 -0.825,-0.52981 -5.55,-2.20287 -10.5,-3.71792 -7.43472,-2.27554 -10.82616,-2.74915 -19.5,-2.72312 -13.81397,0.0414 -20.59196,2.67357 -30.7436,11.93878 L 338.17751,222 l -8.93513,0 c -4.91432,0 -13.05426,0.29238 -18.08876,0.64974 L 302,223.29949 l 0,34.97418 0,34.97419 4.5,3.96106 4.5,3.96105 0,15.9411 0,15.94109 33.25,-0.49627 c 18.2875,-0.27295 71.12513,-0.84719 117.41696,-1.27608 z"
       id="path2993"
       inkscape:connector-curvature="0" />
    <path
       style="fill:#2c2c2c"
       d="m 16.399704,338.32227 c -4.459809,-3.33288 -4.459809,-14.57906 0,-17.55696 1.424236,-0.95099 7.774945,-0.95099 9.205384,0 0.607798,0.40408 1.642064,2.3824 2.298368,4.39626 0.656304,2.01387 1.838256,3.90907 2.626561,4.21157 1.278803,0.49073 6.426059,-3.11721 17.291872,-12.12062 4.766791,-3.94977 34.408205,-33.63701 42.678111,-42.7441 3.85,-4.23974 8.4625,-9.25358 10.25,-11.14186 1.7875,-1.88827 3.25,-3.76794 3.25,-4.17703 0,-0.4091 1.33655,-2.3066 2.97011,-4.21667 1.63356,-1.91007 3.54606,-4.15529 4.25,-4.98936 0.70394,-0.83408 2.15125,-2.85908 3.21625,-4.5 3.25736,-5.01885 16.22634,-20.41667 25.32627,-30.0694 5.87172,-6.22843 21.35879,-19.52442 26.73737,-22.95464 1.65,-1.05229 3.225,-2.21411 3.5,-2.58182 1.24279,-1.66174 21.08838,-11.25427 27.91783,-13.49432 11.18682,-3.66925 25.17475,-3.6324 34.01787,0.0896 3.50312,1.47444 7.53818,3.4107 8.9668,4.3028 2.89342,1.80678 9.34403,8.32923 12.96006,13.10438 l 2.36256,3.11988 13.13744,-0.0151 c 12.45008,-0.0143 19.22107,-1.13256 21.59777,-3.56706 0.49284,-0.50484 1.01505,-17.41735 1.16045,-37.58337 0.29797,-41.32375 0.43243,-40.4984 -6.41952,-39.40273 -2.1424,0.34258 -7.00161,1.70817 -10.79826,3.03464 -3.79665,1.32647 -6.903,2.11037 -6.903,1.742 0,-0.89272 3.76655,-10.43521 6.66927,-16.89649 1.2819,-2.85345 2.33073,-5.504157 2.33073,-5.890473 0,-0.386317 0.85216,-2.551684 1.8937,-4.811926 1.04153,-2.260242 3.1291,-7.259531 4.63905,-11.109531 1.50995,-3.85 3.55809,-8.8 4.55143,-11 C 291.50978,63.913092 297,49.566323 297,48.201611 c 0,-2.473116 2.18424,-0.701217 3.49276,2.833391 3.12387,8.438325 4.88647,12.809762 7.11743,17.652048 1.3144,2.852878 2.39392,5.777878 2.39895,6.5 0.005,0.722123 1.11596,3.56295 2.46873,6.31295 1.35277,2.75 2.47366,5.525527 2.49086,6.167838 0.0172,0.642311 1.15627,3.407664 2.53127,6.145227 1.375,2.737564 2.5,5.557461 2.5,6.266435 0,0.70898 0.823,3.11863 1.8289,5.35478 3.41956,7.60186 6.15046,14.91969 5.72614,15.34401 -0.23265,0.23266 -3.04021,-0.48017 -6.23902,-1.58406 -3.19881,-1.1039 -7.88114,-2.31443 -10.40517,-2.69008 -8.21,-1.22188 -7.91085,-2.71058 -7.91085,39.36728 0,27.23333 0.31023,37.0388 1.2,37.92857 0.83787,0.83787 6.25767,1.2 17.95953,1.2 l 16.75953,0 2.58636,-2.75 c 1.4225,-1.5125 3.50241,-4.2125 4.62203,-6 1.11962,-1.7875 2.44897,-3.25 2.95411,-3.25 0.50514,0 1.75306,-0.7875 2.77316,-1.75 10.04073,-9.47384 33.31675,-11.84743 50.45158,-5.14482 5.39919,2.11199 17.82177,8.02289 18.6937,8.89482 0.275,0.275 3.06188,2.22466 6.19307,4.33257 3.13119,2.10791 6.95619,4.91746 8.5,6.24343 1.54381,1.32598 4.2276,3.58065 5.96398,5.01038 6.69187,5.51008 22.68237,22.08077 27.59221,28.59335 10.88061,14.4324 14.09208,18.56432 20.45704,26.32027 22.57829,27.51252 43.62235,49.01537 63.10993,64.48579 3.47393,2.75782 6.70429,5.01421 7.17857,5.01421 1.50178,0 4.0052,-3.07299 4.0052,-4.91644 0,-4.72142 8.24379,-6.83977 12,-3.08356 1.51515,1.51515 2,3.33333 2,7.5 0,6.38634 -1.92892,9.05459 -7.19422,9.95167 -1.81818,0.30978 -30.30578,0.77513 -63.30578,1.03412 -33,0.25899 -99.15,0.86625 -147,1.34946 -149.56616,1.51037 -342.950762,2.34608 -344.100296,1.48702 z m 228.396106,-3.95801 c 28.96514,-0.49134 35.55663,-0.85955 36.75,-2.05292 C 282.68488,331.17227 283,327.70247 283,316.29928 l 0,-14.55786 4.36877,-4.12071 4.36877,-4.12071 0.69721,-34.31804 c 0.52645,-25.91299 0.40614,-34.66875 -0.49122,-35.75 C 290.99556,222.28972 287.23386,222 273.35124,222 l -17.40387,0 -4.39292,-4.25 c -9.86304,-9.54215 -21.32219,-14.15236 -33.44966,-13.45736 -8.30258,0.4758 -19.87382,2.85774 -24.60479,5.06491 -16.77094,7.82424 -20.56611,9.99029 -33.8601,19.3253 -12.15643,8.53622 -18.81749,14.38392 -47.1884,41.42644 C 104.72482,277.47418 94.671584,286.875 90.110969,291 c -4.560614,4.125 -10.903559,9.975 -14.095432,13 -5.498953,5.21146 -12.917859,11.8982 -24.798917,22.35152 -2.905859,2.55666 -5.718359,4.64848 -6.25,4.64848 -1.035918,0 -1.343726,3.28956 -0.396446,4.23684 0.657756,0.65776 147.816216,0.0164 200.225636,-0.87258 z m 216.40443,-2.08357 c 60.80612,-0.56046 85.01969,-1.10021 85.83263,-1.91332 0.84325,-0.84343 -0.19198,-2.37547 -4.05432,-6 -2.85269,-2.67706 -5.7306,-5.18006 -6.39534,-5.56224 -0.66474,-0.38218 -4.41018,-3.75718 -8.32321,-7.5 C 524.34698,307.56231 517.01958,300.675 511.9769,296 506.93421,291.325 495.76399,280.7418 487.15419,272.48178 452.06075,238.81405 446.44772,233.8569 434.5,225.98024 c -3.3,-2.17556 -6.45,-4.31198 -7,-4.74759 -6.12861,-4.85403 -22.01408,-12.49544 -33,-15.87402 -7.16499,-2.20351 -10.93695,-2.7659 -18.5,-2.7583 -8.41659,0.008 -10.34084,0.36875 -16.87301,3.15921 -7.81232,3.33733 -8.09765,3.53441 -15.1498,10.46452 l -4.52281,4.44454 -17.85053,0.64561 c -10.97948,0.39711 -18.38043,1.08541 -19.22719,1.78815 -1.11997,0.9295 -1.37666,7.54519 -1.37666,35.48113 0,34.30862 0.002,34.34047 2.25,36.48211 1.2375,1.17892 3.2625,2.82321 4.5,3.65396 2.1735,1.4591 2.25,2.04374 2.25,17.19545 0,11.05232 0.36217,16.04716 1.2262,16.91119 0.93832,0.93832 8.74483,1.10987 33.25,0.73069 17.61309,-0.27253 70.13891,-0.84682 116.72404,-1.2762 z"
       id="path2991"
       inkscape:connector-curvature="0" />
    <path
       style="fill:#030303"
       d="m 15.66311,335.92941 c -2.094032,-2.98965 -2.15096,-9.78789 -0.106406,-12.7069 C 16.711037,321.57446 18.117401,321 20.997687,321 c 4.099938,0 4.892421,0.67032 6.502313,5.5 1.562289,4.68687 4.644519,4.43221 11.305462,-0.93408 3.131996,-2.52325 7.247272,-5.82031 9.145059,-7.32682 C 51.863255,315.13308 81.653642,285.45692 90,276.35084 97.860401,267.77496 103.54563,261.17466 107.52937,256 c 1.9054,-2.475 4.04992,-5.175 4.76561,-6 0.71568,-0.825 2.14576,-2.85 3.17795,-4.5 2.95387,-4.72191 15.30978,-19.32014 25.50327,-30.13156 10.53482,-11.17343 32.4716,-27.91538 41.0238,-31.30899 1.925,-0.76386 4.175,-1.92449 5,-2.57917 0.825,-0.65468 5.29261,-2.42807 9.92802,-3.94086 6.99522,-2.28292 10.22529,-2.75523 19,-2.77821 10.14483,-0.0266 10.88659,0.12165 18.3586,3.66848 6.86745,3.25986 16.71338,11.12844 16.71338,13.35684 0,0.40365 1.14321,1.96681 2.54047,3.47369 2.50915,2.70601 2.69523,2.73978 15.09609,2.73978 13.10307,0 22.69053,-1.80403 23.71028,-4.46147 0.80746,-2.10421 0.96872,-73.80349 0.17037,-75.75046 -0.38608,-0.94157 -1.49585,-1.9639 -2.46614,-2.27186 -2.07584,-0.65885 -11.89799,1.56662 -17.43462,3.95027 -3.71609,1.59987 -3.85167,1.59352 -3.14423,-0.14726 0.40663,-1.00057 1.43051,-3.84422 2.27528,-6.31922 0.84477,-2.475 1.92455,-4.99898 2.39952,-5.60885 0.47497,-0.60986 1.7119,-3.57454 2.74874,-6.58816 1.03684,-3.013631 2.37557,-6.33965 2.97497,-7.391158 C 280.47012,92.360324 282.58831,87.225 284.57782,82 c 1.98951,-5.225 4.03046,-10.004625 4.53544,-10.621388 0.50499,-0.616764 1.62657,-3.506882 2.49241,-6.422484 0.86584,-2.915602 2.15862,-6.235978 2.87284,-7.378612 0.71423,-1.142634 1.86842,-3.870402 2.56488,-6.061708 l 1.26629,-3.984192 1.23837,3.484192 c 0.68111,1.916306 1.95865,4.834192 2.839,6.484192 0.88035,1.65 1.6034,3.681664 1.60679,4.514809 0.003,0.833145 0.86598,3.119045 1.91687,5.079778 1.05089,1.960733 2.60256,5.894696 3.44816,8.742141 0.8456,2.847444 2.23578,6.174172 3.08929,7.392728 0.85351,1.218556 1.55184,2.909593 1.55184,3.757859 0,0.848267 0.85982,3.146539 1.91071,5.107272 1.05089,1.960733 2.5831,5.829159 3.40491,8.596503 0.82182,2.76734 1.98171,5.88144 2.57755,6.92022 2.13659,3.72491 4.89545,12.38869 3.94501,12.38869 -0.53331,0 -1.95258,-0.52782 -3.15392,-1.17293 -2.05149,-1.10163 -12.68762,-3.71475 -15.43426,-3.79194 C 306.5625,115.01581 305.1,115.9 304,117 c -1.92779,1.92779 -2,3.33333 -2,38.92857 0,32.2381 0.19959,37.12817 1.57143,38.5 1.30521,1.30521 4.44885,1.57143 18.55637,1.57143 l 16.98494,0 3.00665,-3.25 c 1.65366,-1.7875 3.69219,-4.3891 4.53007,-5.78134 1.3851,-2.3015 2.57937,-3.26629 8.85054,-7.14994 1.1,-0.68122 3.17207,-2.0092 4.6046,-2.95109 5.36156,-3.5252 20.11932,-4.83935 31.46174,-2.80161 12.45664,2.23792 29.7678,10.93419 42.43366,21.31657 2.475,2.0288 5.99136,4.91017 7.81413,6.40306 8.03273,6.57898 21.41746,20.92082 29.48547,31.59392 28.50397,37.70764 56.85696,68.19006 81.51663,87.63888 3.47393,2.73985 6.73643,4.98155 7.25,4.98155 1.60473,0 4.93377,-3.91353 4.93377,-5.8 0,-2.783 2.05045,-4.2 6.07756,-4.2 5.04703,0 6.07816,1.64937 5.72242,9.15354 -0.26781,5.64951 -0.57235,6.45825 -2.83969,7.54109 -1.86719,0.89174 -18.94685,1.35139 -64.5,1.73583 -34.07816,0.2876 -100.88529,0.9196 -148.46029,1.40444 -47.575,0.48484 -144.3641,1.23869 -215.08689,1.67523 l -128.586889,0.7937 -1.663111,-2.37442 z m 228.0542,-0.56146 c 27.37567,-0.45326 36.65251,-0.91737 38,-1.90108 1.5476,-1.1298 1.82534,-3.30195 2.10608,-16.47129 l 0.32339,-15.16987 4.42661,-4.24144 4.42661,-4.24144 0,-13.51018 c 0,-7.43059 0.29343,-22.93216 0.65206,-34.44792 0.59216,-19.01419 0.49373,-21.09608 -1.07142,-22.66124 C 291.08253,221.22539 288.60133,221 273.60747,221 l -17.24967,0 -4.60089,-4.25 c -6.0966,-5.63163 -10.78323,-8.44177 -19.05513,-11.42561 -5.69267,-2.05346 -8.15204,-2.39792 -14.52729,-2.03469 -8.06852,0.45969 -21.18374,3.44052 -26.51991,6.02744 -1.73502,0.84112 -5.63808,2.67107 -8.67346,4.06656 -6.65808,3.06098 -12.37744,6.66652 -29.19882,18.40722 -6.92646,4.83442 -18.26645,15.06935 -41.7823,37.71074 -6.875,6.61934 -16.516128,15.62688 -21.424729,20.01675 -4.908601,4.38988 -12.108601,10.97456 -16,14.63264 -13.589711,12.77491 -26.770271,24.35893 -29.163379,25.63089 -2.591682,1.37749 -3.367326,5.71288 -1.161892,6.49427 1.596935,0.5658 151.72705,-0.11781 199.46731,-0.90826 z m 133.09843,-1.26261 c 0.93215,-0.49515 38.97144,-1.09191 85.18426,-1.33638 45.925,-0.24295 84.2875,-0.7885 85.25,-1.21233 2.73511,-1.2044 2.16239,-2.33269 -4,-7.88028 -3.1625,-2.84699 -9.575,-8.72181 -14.25,-13.05515 -4.675,-4.33333 -12.325,-11.41259 -17,-15.73167 -4.675,-4.31908 -17.08598,-16.08626 -27.57995,-26.14929 C 468.55356,253.52532 449.61827,236.11478 443,230.65551 440.1186,228.2787 421.21843,216 420.44129,216 c -0.4311,0 -1.49424,-0.60089 -2.36255,-1.33531 C 417.21043,213.93028 414.925,212.73116 413,212 c -1.925,-0.73116 -4.175,-1.85079 -5,-2.48805 -2.3913,-1.84714 -17.51441,-6.41847 -25.15657,-7.60419 -13.52401,-2.09833 -27.83254,2.51969 -38.20221,12.32959 l -5.85877,5.54251 -14.64123,0.58028 c -8.05267,0.31915 -16.07158,0.59368 -17.81979,0.61007 C 299.91321,221.03027 300,220.51335 300,258.62241 l 0,34.47956 3.75,3.44424 c 2.0625,1.89433 4.0875,3.44638 4.5,3.44901 0.4125,0.003 0.75,7.17264 0.75,15.93335 0,13.14719 0.2744,16.20297 1.57143,17.5 1.36204,1.36205 5.76788,1.57143 33.06574,1.57143 17.32187,0 32.25223,-0.4026 33.17857,-0.89466 z"
       id="path2989"
       inkscape:connector-curvature="0" />
  </g>
</svg>
